<svg width="128" height="71" viewBox="0 0 128 71" fill="none" xmlns="http://www.w3.org/2000/svg">
<path d="M118.235 23.9529C112.909 17.464 104.12 9.61959 89.6148 1.54487C82.6012 -2.36423 73.6578 1.47782 72.002 9.32808C71.9787 9.42719 71.9583 9.52922 71.9408 9.61959C71.929 9.68803 71.8932 9.75001 71.8397 9.79437C71.7863 9.83873 71.7187 9.86255 71.6493 9.86154H55.325C55.2555 9.86255 55.188 9.83873 55.1345 9.79437C55.0811 9.75001 55.0452 9.68803 55.0334 9.61959L54.9722 9.32808C53.3311 1.47782 44.3876 -2.36423 37.374 1.54487C20.7115 10.8323 11.5961 19.7873 6.60261 26.7514C3.76226 29.9969 1.75108 33.8826 0.741395 38.0756C-0.268288 42.2686 -0.246372 46.6439 0.805265 50.8266C1.8569 55.0093 3.90691 58.8747 6.77963 62.0915C9.65235 65.3084 13.2621 67.7809 17.2997 69.2971C21.3373 70.8133 25.6822 71.328 29.9623 70.7971C34.2424 70.2663 38.33 68.7057 41.8748 66.2491C45.4196 63.7925 48.3161 60.5131 50.3159 56.6919C52.3157 52.8707 53.3593 48.6217 53.3573 44.3088C53.3584 42.4822 53.1708 40.6603 52.7976 38.8722C52.7589 38.6939 52.7606 38.5092 52.8025 38.3317C52.8444 38.1541 52.9254 37.9881 53.0397 37.8459C53.154 37.7037 53.2986 37.5888 53.463 37.5096C53.6274 37.4305 53.8074 37.3891 53.9899 37.3885H73.6898C73.8723 37.3891 74.0523 37.4305 74.2167 37.5096C74.3811 37.5888 74.5257 37.7037 74.64 37.8459C74.7542 37.9881 74.8353 38.1541 74.8772 38.3317C74.9191 38.5092 74.9208 38.6939 74.8821 38.8722C74.0496 42.8605 74.1417 46.9865 75.1516 50.9336C76.1614 54.8807 78.062 58.544 80.7076 61.6425C83.3532 64.7409 86.6734 67.1921 90.4135 68.808C94.1536 70.4239 98.2142 71.1614 102.284 70.9641C115.801 70.3345 126.831 59.4642 127.645 45.9558C127.901 41.8085 127.184 37.6586 125.55 33.8381C123.916 30.0175 121.411 26.6323 118.235 23.9529ZM26.6728 66.3846C22.3065 66.3852 18.0381 65.0909 14.4074 62.6656C10.7767 60.2402 7.9467 56.7926 6.27539 52.7589C4.60408 48.7251 4.16649 44.2863 5.01796 40.0038C5.86943 35.7214 7.97171 31.7876 11.0589 28.6999C14.1462 25.6123 18.0797 23.5095 22.3621 22.6575C26.6444 21.8054 31.0833 22.2424 35.1173 23.9132C39.1512 25.584 42.5992 28.4135 45.025 32.0439C47.4509 35.6743 48.7457 39.9425 48.7457 44.3088C48.7395 50.1613 46.4121 55.7723 42.274 59.9109C38.136 64.0495 32.5253 66.3776 26.6728 66.3846ZM101.007 66.3846C96.6407 66.3846 92.3726 65.0899 88.7422 62.6641C85.1119 60.2384 82.2824 56.7907 80.6115 52.7569C78.9407 48.723 78.5035 44.2843 79.3553 40.0021C80.2071 35.7198 82.3096 31.7863 85.397 28.6989C88.4843 25.6116 92.4178 23.509 96.7001 22.6572C100.982 21.8054 105.421 22.2426 109.455 23.9135C113.489 25.5843 116.936 28.4138 119.362 32.0442C121.788 35.6745 123.083 39.9426 123.083 44.3088C123.076 50.1618 120.749 55.7733 116.61 59.9119C112.471 64.0506 106.86 66.3784 101.007 66.3846Z" fill="url(#paint0_linear_605_44)"/>
<path d="M100.348 28C98.703 27.9977 97.0734 28.3198 95.5527 28.9478C94.032 29.5758 92.6501 30.4975 91.4859 31.66C90.3217 32.8226 89.3981 34.2033 88.768 35.7231C88.1378 37.2429 87.8135 38.872 87.8135 40.5173C87.8135 40.9458 87.8368 41.3656 87.8776 41.7824C88.5131 38.6196 93.8447 36.1534 100.334 36.1534C106.823 36.1534 112.157 38.6196 112.79 41.7824C112.831 41.3656 112.854 40.9458 112.854 40.5173C112.854 37.1995 111.537 34.0175 109.192 31.6704C106.847 29.3232 103.666 28.0031 100.348 28Z" fill="url(#paint1_linear_605_44)"/>
<path d="M26.5348 28C24.8895 27.9977 23.2599 28.3198 21.7392 28.9478C20.2186 29.5758 18.8366 30.4975 17.6724 31.66C16.5082 32.8226 15.5846 34.2033 14.9545 35.7231C14.3243 37.2429 14 38.872 14 40.5173C14 40.9458 14.0233 41.3656 14.0641 41.7824C14.6996 38.6196 20.0313 36.1534 26.5202 36.1534C33.0091 36.1534 38.3437 38.6196 38.9762 41.7824C39.0171 41.3656 39.0404 40.9458 39.0404 40.5173C39.0404 37.1995 37.7232 34.0175 35.3783 31.6704C33.0334 29.3232 29.8525 28.0031 26.5348 28Z" fill="url(#paint2_linear_605_44)"/>
<defs>
<linearGradient id="paint0_linear_605_44" x1="125" y1="35" x2="-2.01199e-06" y2="35" gradientUnits="userSpaceOnUse">
<stop stop-color="#F6921E"/>
<stop offset="1" stop-color="#DF2818"/>
</linearGradient>
<linearGradient id="paint1_linear_605_44" x1="88" y1="37.4135" x2="111.5" y2="34.9135" gradientUnits="userSpaceOnUse">
<stop stop-color="#E54719"/>
<stop offset="1" stop-color="#F3871D"/>
</linearGradient>
<linearGradient id="paint2_linear_605_44" x1="14.1865" y1="37.4135" x2="37.6865" y2="34.9135" gradientUnits="userSpaceOnUse">
<stop stop-color="#E54719"/>
<stop offset="1" stop-color="#F3871D"/>
</linearGradient>
</defs>
</svg>
