<svg width="18" height="18" viewBox="0 0 18 18" fill="none" xmlns="http://www.w3.org/2000/svg">
<path d="M18 3.8571C18 3.17511 17.7291 2.52105 17.2468 2.03882C16.7646 1.55658 16.1106 1.28566 15.4286 1.28566H14.7857V0.660881C14.7857 0.314942 14.5197 0.0180217 14.1738 0.000744905C14.0869 -0.003443 14 0.01006 13.9185 0.0404358C13.8369 0.0708115 13.7624 0.117428 13.6994 0.177459C13.6364 0.237491 13.5862 0.309688 13.552 0.389677C13.5177 0.469665 13.5 0.555779 13.5 0.642801V1.28566H4.5V0.660881C4.5 0.314942 4.23402 0.0180217 3.88808 0.000744905C3.80116 -0.003443 3.71429 0.01006 3.63275 0.0404358C3.5512 0.0708115 3.47667 0.117428 3.41367 0.177459C3.35067 0.237491 3.30051 0.309688 3.26624 0.389677C3.23197 0.469665 3.21429 0.555779 3.21429 0.642801V1.28566H2.57143C1.88944 1.28566 1.23539 1.55658 0.753154 2.03882C0.270918 2.52105 0 3.17511 0 3.8571V4.33924C0 4.38187 0.0169324 4.42274 0.0470722 4.45288C0.0772119 4.48302 0.11809 4.49996 0.160714 4.49996H17.8393C17.8819 4.49996 17.9228 4.48302 17.9529 4.45288C17.9831 4.42274 18 4.38187 18 4.33924V3.8571ZM0 15.4286C0 16.1105 0.270918 16.7646 0.753154 17.2468C1.23539 17.7291 1.88944 18 2.57143 18H15.4286C16.1106 18 16.7646 17.7291 17.2468 17.2468C17.7291 16.7646 18 16.1105 18 15.4286V5.94639C18 5.90376 17.9831 5.86289 17.9529 5.83275C17.9228 5.80261 17.8819 5.78567 17.8393 5.78567H0.160714C0.11809 5.78567 0.0772119 5.80261 0.0470722 5.83275C0.0169324 5.86289 0 5.90376 0 5.94639V15.4286Z" fill="#DF2818"/>
</svg>
