<svg width="14" height="14" viewBox="0 0 14 14" fill="none" xmlns="http://www.w3.org/2000/svg">
<path d="M8.26929 2.90274C8.8331 3.01275 9.35127 3.28849 9.75747 3.69469C10.1637 4.10089 10.4394 4.61905 10.5494 5.18287M8.26929 0.59375C9.44068 0.723883 10.533 1.24845 11.3669 2.08132C12.2009 2.9142 12.7268 4.00587 12.8584 5.1771M12.2812 9.78354V11.5153C12.2818 11.676 12.2489 11.8352 12.1845 11.9825C12.1201 12.1298 12.0256 12.262 11.9071 12.3707C11.7887 12.4794 11.6488 12.5621 11.4965 12.6136C11.3442 12.6651 11.1829 12.6843 11.0228 12.6698C9.24647 12.4768 7.54022 11.8698 6.04111 10.8976C4.64638 10.0114 3.46389 8.82887 2.57762 7.43414C1.60206 5.92822 0.994944 4.21367 0.805467 2.4294C0.791041 2.26977 0.810012 2.10889 0.861171 1.95699C0.91233 1.8051 0.994556 1.66552 1.10261 1.54715C1.21067 1.42877 1.34219 1.33419 1.48881 1.26943C1.63542 1.20467 1.79391 1.17115 1.95419 1.171H3.68594C3.96608 1.16824 4.23766 1.26744 4.45007 1.45012C4.66248 1.63279 4.80122 1.88647 4.84043 2.16387C4.91352 2.71806 5.04908 3.26221 5.24451 3.78593C5.32217 3.99254 5.33898 4.21709 5.29294 4.43296C5.2469 4.64883 5.13994 4.84698 4.98474 5.00393L4.25164 5.73703C5.07338 7.1822 6.26996 8.37878 7.71513 9.20052L8.44823 8.46742C8.60518 8.31221 8.80333 8.20526 9.0192 8.15922C9.23507 8.11318 9.45962 8.12999 9.66623 8.20765C10.1899 8.40308 10.7341 8.53863 11.2883 8.61173C11.5687 8.65129 11.8248 8.79252 12.0079 9.00858C12.1909 9.22464 12.2882 9.50044 12.2812 9.78354Z" stroke="#E02E1A" stroke-width="1.00673" stroke-linecap="round" stroke-linejoin="round"/>
</svg>
