<svg width="134" height="34" viewBox="0 0 134 34" fill="none" xmlns="http://www.w3.org/2000/svg">
<path d="M58.293 25.7375C57.0922 25.7375 55.975 25.5318 54.9414 25.1204C53.923 24.6941 53.0263 24.0998 52.2508 23.3383C51.491 22.5764 50.898 21.693 50.4726 20.6876C50.0469 19.6671 49.834 18.5701 49.834 17.3971C49.834 16.2242 50.0469 15.135 50.4726 14.1295C50.898 13.1089 51.491 12.2254 52.2508 11.479C53.0111 10.7325 53.9002 10.1536 54.9186 9.74235C55.9522 9.3158 57.0694 9.10254 58.2702 9.10254C59.5471 9.10254 60.6798 9.30818 61.6678 9.71949C62.5155 10.0672 63.2712 10.5236 63.9349 11.0889C64.1352 11.2597 64.1383 11.5638 63.9531 11.7512L62.2403 13.4838C62.0521 13.6741 61.7453 13.6673 61.542 13.4934C61.1926 13.1945 60.7939 12.9496 60.3453 12.7585C59.7523 12.4996 59.0609 12.3701 58.2702 12.3701C57.5711 12.3701 56.9253 12.492 56.3323 12.7357C55.7545 12.9642 55.2531 13.2993 54.8274 13.7411C54.4172 14.1829 54.0903 14.7161 53.847 15.3406C53.6189 15.9652 53.5049 16.6507 53.5049 17.3971C53.5049 18.1588 53.6189 18.8519 53.847 19.4766C54.0903 20.101 54.4172 20.6343 54.8274 21.0758C55.2531 21.5177 55.7545 21.8606 56.3323 22.1044C56.9253 22.3478 57.5711 22.4697 58.2702 22.4697C59.0913 22.4697 59.8055 22.3402 60.4138 22.0815C60.868 21.888 61.2759 21.6389 61.637 21.3349C61.8385 21.165 62.1395 21.1604 62.3254 21.3471L64.0569 23.0819C64.2462 23.2716 64.2405 23.5821 64.0341 23.7524C63.3495 24.317 62.5835 24.773 61.7362 25.1204C60.7479 25.5318 59.6003 25.7375 58.293 25.7375Z" fill="#F17534"/>
<path d="M45.5862 25.4857C45.3262 25.4857 45.1152 25.2743 45.1152 25.0137V9.82544C45.1152 9.56479 45.3262 9.35352 45.5862 9.35352H48.2239C48.4839 9.35352 48.6949 9.56479 48.6949 9.82544V25.0137C48.6949 25.2743 48.4839 25.4857 48.2239 25.4857H45.5862Z" fill="#F17534"/>
<path d="M65.2344 25.0137C65.2344 25.2743 65.4453 25.4857 65.7054 25.4857H68.3431C68.3598 25.4857 68.3761 25.485 68.3925 25.4831C68.4085 25.485 68.4248 25.4857 68.4415 25.4857H76.3235C76.5835 25.4857 76.7945 25.2743 76.7945 25.0137V22.8499C76.7945 22.5894 76.5835 22.3779 76.3235 22.3779H68.8141V18.7449H75.5256C75.7856 18.7449 75.9962 18.5336 75.9962 18.273V16.2235C75.9962 15.9628 75.7856 15.7515 75.5256 15.7515H68.8141V12.4383H76.2095C76.4695 12.4383 76.6805 12.227 76.6805 11.9663V9.82544C76.6805 9.56479 76.4695 9.35352 76.2095 9.35352H68.4415C68.4248 9.35352 68.4085 9.35435 68.3925 9.35603C68.3761 9.35435 68.3598 9.35352 68.3431 9.35352H65.7054C65.4453 9.35352 65.2344 9.56479 65.2344 9.82544V25.0137Z" fill="#F17534"/>
<path fill-rule="evenodd" clip-rule="evenodd" d="M81.3298 25.4857C81.3055 25.4857 81.2815 25.4838 81.258 25.4804C81.2348 25.4838 81.2105 25.4857 81.1861 25.4857H78.594C78.3336 25.4857 78.123 25.2743 78.123 25.0137V9.82544C78.123 9.56479 78.3336 9.35352 78.594 9.35352H81.1861C81.2105 9.35352 81.2348 9.35538 81.258 9.35896C81.2815 9.35538 81.3055 9.35352 81.3298 9.35352H85.0315C86.0651 9.35352 86.9394 9.54391 87.6537 9.92475C88.3835 10.3056 88.9381 10.8159 89.3182 11.4557C89.698 12.0955 89.8881 12.8039 89.8881 13.5808C89.8881 14.571 89.5691 15.4088 88.9305 16.0943C88.6557 16.3896 88.3242 16.6454 87.9361 16.8615C88.4801 17.1286 88.9408 17.467 89.3182 17.8766C90.0629 18.6688 90.4354 19.6438 90.4354 20.8016C90.4354 21.685 90.215 22.4846 89.774 23.2008C89.3487 23.9014 88.7252 24.4576 87.9045 24.8686C87.099 25.28 86.1259 25.4857 84.9859 25.4857H81.3298ZM81.6571 22.6979H84.6442C85.3432 22.6979 85.8906 22.4922 86.2856 22.0812C86.6809 21.6697 86.8786 21.1669 86.8786 20.573C86.8786 20.1616 86.7873 19.7962 86.6049 19.4762C86.4224 19.1562 86.1639 18.9049 85.8298 18.7221C85.5105 18.5393 85.1151 18.4479 84.6442 18.4479H81.6571V22.6979ZM84.3477 15.7287H81.6571V12.1412H84.3477C84.9403 12.1412 85.4193 12.2936 85.7842 12.5982C86.1487 12.8876 86.3312 13.3294 86.3312 13.9235C86.3312 14.5329 86.1487 14.9899 85.7842 15.2945C85.4193 15.584 84.9403 15.7287 84.3477 15.7287Z" fill="#F17534"/>
<path d="M91.5898 25.0137C91.5898 25.2743 91.8008 25.4857 92.0608 25.4857H94.6989C94.7153 25.4857 94.7316 25.485 94.748 25.4831C94.7639 25.485 94.7807 25.4857 94.797 25.4857H102.679C102.939 25.4857 103.15 25.2743 103.15 25.0137V22.8499C103.15 22.5894 102.939 22.3779 102.679 22.3779H95.1699V18.7449H101.881C102.141 18.7449 102.352 18.5336 102.352 18.273V16.2235C102.352 15.9628 102.141 15.7515 101.881 15.7515H95.1699V12.4383H102.565C102.825 12.4383 103.036 12.227 103.036 11.9663V9.82544C103.036 9.56479 102.825 9.35352 102.565 9.35352H94.797C94.7807 9.35352 94.7639 9.35435 94.748 9.35603C94.7316 9.35435 94.7153 9.35352 94.6989 9.35352H92.0608C91.8008 9.35352 91.5898 9.56479 91.5898 9.82544V25.0137Z" fill="#F17534"/>
<path fill-rule="evenodd" clip-rule="evenodd" d="M108.056 25.0137V18.8363H108.526C108.53 18.9246 108.558 19.0136 108.616 19.093L113.091 25.2903C113.18 25.413 113.321 25.4857 113.473 25.4857H116.521C116.911 25.4857 117.132 25.0377 116.895 24.7273L112.316 18.7202C112.864 18.6225 113.367 18.4632 113.825 18.2422C114.646 17.8462 115.284 17.2977 115.74 16.597C116.196 15.881 116.424 15.0508 116.424 14.1064C116.424 13.1771 116.196 12.3545 115.74 11.6385C115.284 10.9225 114.653 10.3665 113.848 9.97047C113.042 9.55915 112.107 9.35352 111.043 9.35352H107.684C107.667 9.35352 107.651 9.35435 107.635 9.35603C107.618 9.35435 107.602 9.35352 107.585 9.35352H104.948C104.688 9.35352 104.477 9.56479 104.477 9.82544V25.0137C104.477 25.2743 104.688 25.4857 104.948 25.4857H107.585C107.846 25.4857 108.056 25.2743 108.056 25.0137ZM110.61 16.1857H108.056V12.1412H110.633C111.347 12.1412 111.894 12.3316 112.275 12.7125C112.655 13.0933 112.844 13.5732 112.844 14.152C112.844 14.7766 112.647 15.2717 112.252 15.6373C111.872 16.0029 111.325 16.1857 110.61 16.1857Z" fill="#F17534"/>
<path d="M122.119 25.0975C123.153 25.5242 124.255 25.7375 125.425 25.7375C127.021 25.7375 128.427 25.4023 129.643 24.7322C130.875 24.0617 131.832 23.0716 132.516 21.7616C133.215 20.4362 133.565 18.8062 133.565 16.8716V16.818C133.565 16.5573 133.354 16.346 133.094 16.346H125.577C125.317 16.346 125.106 16.5573 125.106 16.818V18.9206C125.106 19.1783 125.312 19.3882 125.569 19.3924L129.73 19.4587C129.642 19.7943 129.521 20.1052 129.37 20.3905C129.02 21.0606 128.511 21.5787 127.842 21.9444C127.188 22.2949 126.39 22.4697 125.448 22.4697C124.521 22.4697 123.7 22.2568 122.985 21.8301C122.271 21.4035 121.709 20.8096 121.298 20.0476C120.888 19.2861 120.683 18.4025 120.683 17.3971C120.683 16.3917 120.888 15.5158 121.298 14.7694C121.724 14.0077 122.309 13.4212 123.054 13.0099C123.799 12.5834 124.642 12.3701 125.585 12.3701C126.466 12.3701 127.257 12.5377 127.956 12.8728C128.505 13.1359 128.998 13.5023 129.434 13.9719C129.627 14.1801 129.958 14.2028 130.158 14.0017L131.914 12.2428C132.087 12.0693 132.099 11.7907 131.931 11.613C131.236 10.8818 130.39 10.2963 129.393 9.8566C128.268 9.35389 127.014 9.10254 125.63 9.10254C124.43 9.10254 123.305 9.3158 122.256 9.74235C121.207 10.1536 120.287 10.7401 119.497 11.5018C118.722 12.2482 118.114 13.1241 117.673 14.1295C117.232 15.135 117.012 16.2242 117.012 17.3971C117.012 18.5701 117.224 19.6671 117.65 20.6876C118.091 21.693 118.691 22.5764 119.451 23.3383C120.211 24.0846 121.1 24.6713 122.119 25.0975Z" fill="#F17534"/>
<path d="M2.01678 3.6072C0 6.17726 0 9.93897 0 17.4624C0 24.9859 0 28.7474 2.01678 31.3177C2.47959 31.9074 3.01089 32.4396 3.59941 32.9036C3.82464 33.0811 4.05906 33.243 4.3044 33.3909L14.2317 11.426C14.6632 10.4711 15.7563 10.0109 16.7388 10.3704L23.0473 12.6785C23.6434 12.8965 24.1007 13.385 24.2797 13.9949L30.0573 33.6587C30.4846 33.445 30.8795 33.1954 31.2498 32.9036C31.8386 32.4396 32.3696 31.9074 32.8326 31.3177C34.8492 28.7474 34.8492 24.9859 34.8492 17.4624C34.8492 9.93897 34.8492 6.17726 32.8326 3.6072C32.3696 3.01741 31.8386 2.48495 31.2498 2.02114C28.6854 0 24.9316 0 17.4246 0C9.9175 0 6.16391 0 3.59941 2.02114C3.01089 2.48495 2.47959 3.01741 2.01678 3.6072Z" fill="#F17534"/>
</svg>
