<svg width="153" height="30" viewBox="0 0 153 30" fill="none" xmlns="http://www.w3.org/2000/svg">
<path d="M51.6593 26.1184C49.3364 26.1184 47.283 25.6638 45.4989 24.7547C43.7149 23.8245 42.3356 22.5121 41.3608 20.8174C40.3859 19.1226 39.8984 17.1282 39.8984 14.8341C39.8984 12.54 40.3859 10.5456 41.3608 8.85083C42.3356 7.13538 43.7149 5.82302 45.4989 4.91365C47.283 3.9836 49.3364 3.51855 51.6593 3.51855C53.2359 3.51855 54.6257 3.68392 55.8287 4.01461C57.0528 4.32462 58.1727 4.82063 59.1889 5.50267V9.99787C58.2765 9.25382 57.2291 8.71647 56.0467 8.38578C54.8851 8.03442 53.5577 7.85877 52.0642 7.85877C50.6744 7.85877 49.4191 8.14811 48.2992 8.7268C47.1999 9.28482 46.3288 10.0908 45.6857 11.1449C45.0427 12.1989 44.7209 13.4287 44.7209 14.8341C44.7209 16.2601 45.0115 17.5105 45.5921 18.5852C46.1938 19.6393 47.0337 20.4557 48.1123 21.0343C49.1909 21.613 50.4357 21.9024 51.8461 21.9024C53.1322 21.9024 54.2521 21.6751 55.2063 21.2203V17.0352H51.6906V13.563H59.7801V24.0106C57.7266 25.4159 55.02 26.1184 51.6593 26.1184Z" fill="#3F91DD"/>
<path d="M71.6357 26.1191C68.773 26.1191 66.5222 25.4372 64.8836 24.0731C63.2451 22.6885 62.4258 20.756 62.4258 18.2759C62.4258 15.8165 63.1519 13.8737 64.6036 12.4477C66.0765 11.0216 68.1713 10.3086 70.8889 10.3086C72.6725 10.3086 74.1867 10.6393 75.4314 11.3006C76.6757 11.962 77.6199 12.8817 78.2629 14.0597C78.9059 15.2171 79.2272 16.5295 79.2272 17.9969V19.888H66.9063C67.2382 21.7894 69.0218 22.7401 72.2576 22.7401C73.2118 22.7401 74.1972 22.6575 75.2134 22.4921C76.2301 22.3268 77.1118 22.0994 77.8585 21.8101V25.0961C77.1324 25.4061 76.1989 25.6545 75.0578 25.8401C73.9173 26.0263 72.7762 26.1191 71.6357 26.1191ZM74.7779 16.8499C74.7159 15.8578 74.3423 15.0931 73.6579 14.5558C72.9736 13.9977 72.0295 13.7187 70.8265 13.7187C69.6442 13.7187 68.7106 13.9977 68.0263 14.5558C67.3419 15.1138 66.9683 15.8785 66.9063 16.8499H74.7779Z" fill="#3F91DD"/>
<path d="M88.8583 26.1191C85.9961 26.1191 83.7453 25.4372 82.1067 24.0731C80.4682 22.6885 79.6484 20.756 79.6484 18.2759C79.6484 15.8165 80.3745 13.8737 81.8268 12.4477C83.2992 11.0216 85.3944 10.3086 88.1116 10.3086C89.8956 10.3086 91.4098 10.6393 92.6546 11.3006C93.8989 11.962 94.8425 12.8817 95.4855 14.0597C96.1286 15.2171 96.4503 16.5295 96.4503 17.9969V19.888H84.129C84.4608 21.7894 86.2449 22.7401 89.4807 22.7401C90.4349 22.7401 91.4204 22.6575 92.4365 22.4921C93.4527 22.3268 94.3344 22.0994 95.0812 21.8101V25.0961C94.3551 25.4061 93.422 25.6545 92.281 25.8401C91.1399 26.0263 89.9994 26.1191 88.8583 26.1191ZM92.001 16.8499C91.9385 15.8578 91.5654 15.0931 90.8811 14.5558C90.1963 13.9977 89.2526 13.7187 88.0496 13.7187C86.8673 13.7187 85.9337 13.9977 85.2494 14.5558C84.5646 15.1138 84.1914 15.8785 84.129 16.8499H92.001Z" fill="#3F91DD"/>
<path d="M97.4922 10.7736H102.035V12.6027C102.72 11.838 103.528 11.2696 104.462 10.8976C105.416 10.5049 106.412 10.3086 107.449 10.3086C109.482 10.3086 110.996 10.8563 111.991 11.9516C113.008 13.0264 113.516 14.4834 113.516 16.3229V25.6545H108.818V16.8499C108.818 14.9278 107.926 13.9668 106.142 13.9668C105.354 13.9668 104.617 14.1631 103.933 14.5558C103.248 14.9278 102.668 15.4858 102.19 16.2298V25.6545H97.4922V10.7736Z" fill="#3F91DD"/>
<path d="M117.662 8.47912C116.937 8.47912 116.325 8.24145 115.827 7.76607C115.329 7.29074 115.08 6.69137 115.08 5.96799C115.08 5.26532 115.329 4.6763 115.827 4.20092C116.325 3.70491 116.937 3.45691 117.662 3.45691C118.388 3.45691 119 3.70491 119.498 4.20092C119.996 4.6763 120.245 5.26532 120.245 5.96799C120.245 6.69137 119.996 7.29074 119.498 7.76607C119 8.24145 118.388 8.47912 117.662 8.47912ZM115.298 10.7732H120.027V25.6541H115.298V10.7732Z" fill="#3F91DD"/>
<path d="M128.041 26.1191C126.921 26.1191 125.718 25.9952 124.432 25.7473C123.166 25.52 122.171 25.1894 121.445 24.7554V21.0971C122.275 21.5931 123.27 21.9961 124.432 22.3061C125.593 22.6161 126.672 22.7711 127.668 22.7711C128.518 22.7711 129.14 22.6988 129.534 22.5541C129.928 22.4094 130.125 22.1408 130.125 21.7481C130.125 21.4381 130.012 21.1901 129.783 21.0041C129.555 20.7974 129.202 20.6217 128.725 20.477C128.269 20.3117 127.501 20.074 126.423 19.764C125.158 19.392 124.162 19.02 123.436 18.648C122.731 18.2553 122.191 17.7696 121.818 17.1909C121.465 16.6122 121.289 15.8681 121.289 14.9588C121.289 13.4087 121.901 12.2513 123.125 11.4866C124.369 10.7012 126.05 10.3086 128.166 10.3086C129.202 10.3086 130.271 10.4222 131.37 10.6496C132.49 10.8563 133.351 11.1353 133.953 11.4866V15.0518C133.351 14.6591 132.563 14.3387 131.588 14.0907C130.634 13.8427 129.7 13.7187 128.787 13.7187C127.937 13.7187 127.273 13.8014 126.796 13.9668C126.34 14.1321 126.112 14.4421 126.112 14.8968C126.112 15.2895 126.33 15.5891 126.765 15.7958C127.221 16.0025 128.062 16.2608 129.285 16.5709L129.908 16.7258C131.215 17.0772 132.231 17.4699 132.957 17.9039C133.683 18.3173 134.191 18.8236 134.482 19.423C134.793 20.0017 134.948 20.7354 134.948 21.6241C134.948 22.9883 134.357 24.0836 133.175 24.9104C131.992 25.7162 130.281 26.1191 128.041 26.1191Z" fill="#3F91DD"/>
<path d="M136.033 2.74414H140.731V12.4786C141.437 11.7552 142.235 11.2179 143.127 10.8665C144.019 10.4945 144.973 10.3085 145.99 10.3085C148.023 10.3085 149.537 10.8562 150.532 11.9515C151.549 13.0263 152.057 14.4833 152.057 16.3228V25.6544H147.359V16.8498C147.359 14.9277 146.467 13.9667 144.683 13.9667C143.895 13.9667 143.158 14.163 142.474 14.5557C141.789 14.9277 141.209 15.4857 140.731 16.2297V25.6544H136.033V2.74414Z" fill="#3F91DD"/>
<path fill-rule="evenodd" clip-rule="evenodd" d="M23.854 7.1303C23.854 11.0683 20.6503 14.2606 16.698 14.2606C12.7457 14.2606 9.54174 11.0683 9.54174 7.1303C9.54174 3.19235 12.7457 0 16.698 0C20.6503 0 23.854 3.19235 23.854 7.1303ZM0.0520036 13.7424C7.84856 13.2188 14.6435 19.0349 15.2764 26.8198C15.342 27.6265 15.3388 28.4227 15.2719 29.2034C7.47532 29.727 0.680394 23.9108 0.0474601 16.126C-0.0180822 15.3193 -0.0149616 14.5229 0.0520036 13.7424ZM20.3164 28.9308C28.1294 28.3002 33.9667 21.5298 33.4412 13.7615C32.6577 13.6948 31.8586 13.6917 31.049 13.757C23.2358 14.3876 17.3986 21.1579 17.9241 28.9262C18.7074 28.993 19.5067 28.9962 20.3164 28.9308Z" fill="#3F91DD"/>
</svg>
