<svg width="158" height="34" viewBox="0 0 158 34" fill="none" xmlns="http://www.w3.org/2000/svg">
<path d="M128.167 2.04321V31.2411H132.453V2.04321H128.167Z" fill="#DD4242"/>
<path fill-rule="evenodd" clip-rule="evenodd" d="M89.4076 31.7127C87.7161 31.7127 86.3032 31.32 85.1685 30.5343C85.0442 30.4486 84.9236 30.3591 84.8061 30.2663V31.2414H81.0239V2.51489H85.3419V14.8213C86.4012 14.1423 87.6827 13.8028 89.1868 13.8028C90.8153 13.8028 92.2335 14.1903 93.4418 14.9653C94.6501 15.7404 95.585 16.8035 96.2466 18.1546C96.9191 19.4953 97.2551 21.0297 97.2551 22.7576C97.2551 24.4544 96.9243 25.9783 96.2624 27.3297C95.6113 28.6806 94.697 29.749 93.5206 30.5343C92.3439 31.32 90.973 31.7127 89.4076 31.7127ZM85.1842 20.0557C84.9319 20.8305 84.8061 21.7312 84.8061 22.7576C84.8061 23.784 84.9319 24.685 85.1842 25.4599C85.4362 26.2351 85.8462 26.837 86.4132 27.2668C86.991 27.6961 87.7581 27.9106 88.7141 27.9106C89.6385 27.9106 90.3951 27.6804 90.9835 27.2196C91.5719 26.7588 92.0078 26.1408 92.2913 25.3655C92.5752 24.5802 92.7167 23.711 92.7167 22.7576C92.7167 21.815 92.5699 20.9563 92.2755 20.1814C91.9815 19.3957 91.5246 18.7725 90.9047 18.3117C90.2953 17.8404 89.5124 17.6047 88.5564 17.6047C87.6635 17.6047 86.9385 17.8194 86.382 18.2489C85.8357 18.6783 85.4362 19.2804 85.1842 20.0557Z" fill="#DD4242"/>
<path d="M74.2486 21.2178V31.2413H78.5347V20.0869C78.5347 18.233 78.0357 16.7353 77.0377 15.5936C76.0502 14.4415 74.5847 13.8655 72.6412 13.8655C71.5065 13.8655 70.4717 14.1168 69.5367 14.6196C68.6807 15.0754 67.9823 15.7018 67.4416 16.4989C67.0383 15.7755 66.4811 15.1805 65.7703 14.7138C64.9195 14.1482 63.8268 13.8655 62.4928 13.8655C61.3265 13.8655 60.2707 14.1221 59.3252 14.6353C58.6107 15.0275 58.0065 15.5267 57.5128 16.1329V14.2739H53.731V31.2413H58.0486V20.9666C58.0486 19.9926 58.3167 19.2018 58.8525 18.5943C59.3988 17.9764 60.1182 17.6674 61.0111 17.6674C61.9464 17.6674 62.6764 17.9816 63.2017 18.6101C63.7375 19.228 64.0056 20.0974 64.0056 21.2178V31.2413H68.2917V20.9666C68.2917 20.3172 68.4126 19.7463 68.6544 19.2542C68.9063 18.7514 69.2529 18.3639 69.6944 18.0916C70.1356 17.8088 70.6557 17.6674 71.2546 17.6674C72.1895 17.6674 72.9194 17.9816 73.4447 18.6101C73.9805 19.228 74.2486 20.0974 74.2486 21.2178Z" fill="#DD4242"/>
<path d="M38.3728 31.0681C39.2131 31.5184 40.3005 31.7437 41.635 31.7437C43.3051 31.7437 44.6869 31.3825 45.7795 30.6597C46.298 30.3202 46.755 29.9305 47.1504 29.4914V31.241H50.9326V14.2737H46.6146V22.8829C46.6146 23.9303 46.4937 24.7785 46.2522 25.428C46.0209 26.067 45.7217 26.554 45.3537 26.889C44.9861 27.2139 44.5922 27.4337 44.1721 27.549C43.7519 27.6643 43.3577 27.7219 42.9901 27.7219C42.0762 27.7219 41.3669 27.5175 40.8626 27.1091C40.3689 26.7007 40.0118 26.1928 39.791 25.5852C39.5706 24.9777 39.4392 24.3754 39.3971 23.7783C39.3551 23.1712 39.334 22.6737 39.334 22.2859V14.2737H34.9849V23.7941C34.9849 24.0771 35.0055 24.5274 35.0476 25.1454C35.0896 25.7634 35.2105 26.4492 35.4103 27.2035C35.6097 27.9469 35.9408 28.6645 36.4031 29.3559C36.8758 30.0469 37.5325 30.6177 38.3728 31.0681Z" fill="#DD4242"/>
<path d="M99.147 14.2736V31.2409H103.465V22.5688C103.465 21.9193 103.554 21.338 103.733 20.8248C103.911 20.3011 104.174 19.8508 104.52 19.4738C104.867 19.0862 105.293 18.7773 105.797 18.5469C106.301 18.306 106.863 18.1646 107.483 18.1227C108.113 18.0703 108.665 18.1174 109.138 18.2641V14.2736C108.623 14.2108 108.108 14.2003 107.593 14.2422C107.079 14.2736 106.58 14.3626 106.096 14.5092C105.613 14.6454 105.167 14.8392 104.757 15.0905C104.221 15.4048 103.769 15.8027 103.402 16.2846C103.228 16.5126 103.07 16.7524 102.929 17.004V14.2736H99.147Z" fill="#DD4242"/>
<path fill-rule="evenodd" clip-rule="evenodd" d="M118.164 31.7119C116.419 31.7119 114.88 31.3402 113.546 30.5964C112.222 29.8425 111.182 28.8109 110.426 27.5015C109.68 26.1819 109.307 24.6738 109.307 22.9769C109.307 21.1232 109.675 19.5102 110.41 18.1381C111.145 16.766 112.159 15.703 113.452 14.9489C114.744 14.1843 116.231 13.802 117.911 13.802C119.697 13.802 121.215 14.221 122.465 15.0589C123.716 15.8967 124.64 17.075 125.239 18.5937C125.838 20.1125 126.048 21.8981 125.869 23.9509H113.919C114.053 24.9695 114.37 25.7967 114.87 26.4331C115.563 27.2922 116.577 27.7216 117.911 27.7216C118.752 27.7216 119.471 27.5381 120.07 27.1717C120.669 26.8052 121.126 26.2763 121.441 25.5849L125.728 26.8104C125.087 28.3605 124.073 29.5648 122.686 30.4235C121.31 31.2826 119.803 31.7119 118.164 31.7119ZM120.795 18.6566C121.161 19.1527 121.407 19.8598 121.533 20.7773H114.032C114.199 19.9939 114.478 19.3496 114.87 18.8451C115.563 17.9548 116.64 17.5097 118.1 17.5097C119.351 17.5097 120.249 17.892 120.795 18.6566Z" fill="#DD4242"/>
<path d="M135.917 31.2411V2.04321H140.203V31.2411H135.917Z" fill="#DD4242"/>
<path fill-rule="evenodd" clip-rule="evenodd" d="M144.975 31.0205C145.827 31.4813 146.861 31.7119 148.08 31.7119C149.551 31.7119 150.764 31.4604 151.72 30.9577C152.482 30.553 153.202 29.9533 153.879 29.1579V31.2406H157.63V20.8717C157.63 20.0968 157.598 19.3949 157.535 18.7665C157.472 18.1381 157.272 17.5097 156.936 16.8813C156.337 15.7501 155.455 14.9541 154.289 14.4933C153.123 14.0324 151.788 13.802 150.286 13.802C148.238 13.802 146.62 14.2419 145.432 15.1217C144.245 16.0015 143.436 17.1431 143.006 18.5466L146.882 19.7719C147.155 18.9969 147.633 18.4576 148.316 18.1538C148.999 17.8501 149.656 17.6982 150.286 17.6982C151.421 17.6982 152.23 17.9339 152.713 18.4052C153.092 18.7753 153.323 19.31 153.405 20.0096C152.679 20.1193 151.991 20.2233 151.342 20.3218C150.239 20.479 149.251 20.6467 148.379 20.8245C147.507 21.0027 146.756 21.2071 146.126 21.4373C145.212 21.7723 144.482 22.1916 143.935 22.6943C143.399 23.1865 143.011 23.757 142.769 24.4065C142.528 25.0559 142.407 25.7735 142.407 26.5589C142.407 27.5014 142.622 28.3654 143.053 29.1511C143.494 29.926 144.135 30.5493 144.975 31.0205ZM150.98 27.9413C150.444 28.2138 149.782 28.3501 148.994 28.3501C148.5 28.3501 148.075 28.2767 147.718 28.13C147.36 27.9832 147.082 27.774 146.882 27.5015C146.693 27.2188 146.599 26.8834 146.599 26.496C146.599 26.2134 146.656 25.9566 146.772 25.7264C146.898 25.4958 147.087 25.2865 147.339 25.0979C147.602 24.8987 147.943 24.7157 148.364 24.548C148.731 24.4117 149.157 24.2859 149.64 24.171C150.123 24.0557 150.759 23.93 151.547 23.7937C152.053 23.6997 152.659 23.5923 153.365 23.4721C153.355 23.7709 153.337 24.1085 153.312 24.4851C153.28 25.0926 153.154 25.6268 152.934 26.0876C152.818 26.3283 152.597 26.627 152.272 26.983C151.957 27.339 151.526 27.6587 150.98 27.9413Z" fill="#DD4242"/>
<path fill-rule="evenodd" clip-rule="evenodd" d="M12.3298 14.3964H0.689941V19.4499C0.689941 26.9957 6.82587 33.113 14.3949 33.113C21.964 33.113 28.1001 26.9957 28.1001 19.4499V14.3964H16.0846V6.34828C16.0846 3.14385 13.4789 0.546143 10.2647 0.546143C7.0504 0.546143 4.44473 3.14385 4.44473 6.34828H8.19952C8.19952 5.21121 9.12414 4.28946 10.2647 4.28946C11.4052 4.28946 12.3298 5.21121 12.3298 6.34828V14.3964ZM12.3298 18.1397V25.252H16.0846V18.1397H24.3453V19.4499C24.3453 24.9286 19.8902 29.3697 14.3949 29.3697C8.8996 29.3697 4.44473 24.9286 4.44473 19.4499V18.1397H12.3298Z" fill="#DD4242"/>
</svg>
