<svg width="23" height="23" viewBox="0 0 23 23" fill="none" xmlns="http://www.w3.org/2000/svg">
<g clip-path="url(#clip0_128_42)">
<path d="M20.251 8.17514L20.451 8.31864H20.6375V7.95965L21.2255 7.90266L21.7839 8.31864H22.7019L22.7664 8.25964C22.6744 7.95015 22.5709 7.64617 22.4549 7.34818L21.8559 7.35818L21.5554 7.02819L21.4974 6.49772L21.1895 6.66571L21.0245 7.31418L20.58 6.8412L20.562 6.39422L20.133 6.02474L19.975 5.86724H19.4775L19.634 6.31073L20.233 6.64471L20.337 6.75521L20.207 6.8202L20.213 7.17169L19.921 7.29368L19.672 7.23919L19.516 7.0187L19.9215 7.04019L20.031 6.8927L19.1336 6.28723L19.0646 6.02924L18.7001 6.35922L18.3306 6.28323L17.7681 7.0147L17.6571 7.30118L17.2971 7.33368L16.7647 7.33718L16.4462 7.18819L16.3522 6.55572L16.4667 6.25423L17.0086 6.13573L17.5996 6.25423L17.6721 5.92724L17.4211 5.86775L17.5066 5.35827L18.1016 5.26527L18.5176 4.6778L18.9471 4.6058L19.3345 4.6633H19.4775L19.3985 4.11132L18.9276 4.30131L18.7616 3.88883L18.4881 3.85083L18.4366 3.56834L18.6596 3.32536L19.1901 3.11736L19.3265 2.87338C17.2991 1.08745 14.6417 0 11.7339 0C9.21048 0 6.87609 0.818965 4.97767 2.2024L5.55764 2.1979L5.81613 2.3409L6.30311 2.44589L6.34111 2.63739L7.11558 2.66588L7.01058 2.41739L6.32261 2.3979L6.4846 2.2454L6.42811 2.06341H5.80613L6.4846 1.55693H7.13457L7.44006 1.97791L7.94704 2.00641L8.25253 1.70993L8.48202 1.82442L8.06103 2.2354C8.06103 2.2354 7.47856 2.2459 7.50706 2.2459C7.53556 2.2459 7.55506 2.64689 7.55506 2.64689L8.26153 2.62739L8.33802 2.43689L8.825 2.4079L8.8825 2.12141L8.59601 2.07291L8.69151 1.81492L8.911 1.74842L9.67546 1.78642L9.25398 2.16891L9.32198 2.46489L9.76146 2.53189L9.73296 1.99691L10.1534 1.77692L10.8989 1.69093L11.9784 2.16891V2.57989L12.3223 2.66588L12.1499 2.99087H11.6624L11.5179 3.36335L10.4054 3.10087L11.2809 2.63439L10.9474 2.3509L10.1924 2.44639L10.1264 2.51489L10.1239 2.51389L10.1124 2.52989L9.89495 2.75588L9.53547 2.78538L9.56397 2.96437L9.68946 3.01637L9.68446 3.07537L9.39198 3.11686L9.37048 3.28636L9.09099 3.30086L9.04049 2.96387L8.53901 3.11636L7.51406 3.71634L7.62905 4.13882L7.91554 4.32581L8.48852 4.40481V5.05628L8.7535 5.01378L8.99749 4.5048L9.60697 4.31181V3.53035L9.94595 3.27436L10.7654 3.46785L10.7079 3.98433H10.9279L11.5304 3.68834L11.5594 4.36631L11.9979 4.6338L11.9794 5.03578L11.5594 5.17877L11.5879 5.31177L12.0944 5.54226L12.0839 5.81925L11.9374 5.83175C11.9369 5.82725 11.9359 5.82425 11.9359 5.82425L11.2969 5.62726L11.2699 5.42226H11.2694L11.4564 5.29377V5.10678L11.2554 5.05628L11.2054 5.22877L10.8529 5.28327L10.8179 5.27177V5.28927L10.6959 5.30777L10.5964 5.10678L10.4814 5.05628H10.2304L10.1164 5.15028V5.35827L10.3309 5.42976L10.5429 5.45976L10.4954 5.48076L10.3019 5.69525L10.2169 5.58826L10.0299 5.53876L9.52047 6.01774L9.58697 6.07224L8.835 6.48872L8.12753 7.22469L8.07903 7.55217L7.37006 8.01815L7.01858 8.37164L7.05758 9.07861L6.5701 8.85162L6.5736 8.43813L5.21716 8.43863L4.51469 8.79412L4.2097 9.35659L4.08871 9.80257L4.2862 10.2351L4.83967 10.3026L5.71914 9.71458L5.79613 10.0061L5.52764 10.513L6.19712 10.6275L6.26411 11.6615L7.18157 11.8175L7.76455 11.1435L8.47202 11.2875L8.72051 11.633L9.39898 11.593L9.41798 11.3925L9.79096 11.5735L10.2114 12.2325L10.9374 12.2425L11.2054 12.7114L11.2434 13.2844L12.0464 13.5899L13.0593 13.6004L13.3558 14.0869L13.8048 14.2309L13.7188 14.6334L13.2268 15.2583L13.0833 16.6428L12.6388 16.9938L11.9799 16.9743L11.7604 17.3562L11.9234 18.0742L11.2059 18.9912L10.9769 19.4122L10.2934 19.7401L9.84396 19.8086L9.82546 19.9991L10.1409 20.0896L10.1029 20.2951L9.82046 20.5671L9.99195 20.7836L10.3319 20.7931L10.3129 21.0551L10.2224 21.3136L10.1934 21.5236L10.6964 21.947L10.6294 22.167L9.94495 22.154L9.26398 21.5601L8.7335 20.6276L8.8075 19.7276L8.40602 19.1922L8.56851 18.2847L8.33002 18.2182V16.2493C8.33002 16.2493 7.66105 15.7423 7.62255 15.7423C7.58405 15.7423 7.26857 15.6563 7.26857 15.6563L7.20157 15.2843L6.33211 14.1944L6.41811 13.8029L6.4466 13.1624L7.04858 12.7414L6.96258 12.0245L6.08362 11.9585L5.39565 11.1745L4.90817 11.0395L4.59319 10.9815L4.63118 10.695L4.2297 10.638V10.8005L3.22574 10.55L2.82176 9.93207L2.98626 9.63258L2.35078 8.70512L2.24179 8.02665H1.9838L2.0693 8.68562L2.50878 9.36409L2.46078 9.63208L2.08829 9.57458L1.62981 8.79312V7.88366L1.15184 7.65417V6.9997C0.561861 8.38264 0.234375 9.90357 0.234375 11.5C0.234375 17.8412 5.39315 23 11.7344 23C15.3292 23 18.5431 21.3411 20.6535 18.7492H20.274V17.9847L19.835 17.3937V16.4743L19.5 16.1403L19.4705 15.7578L19.8965 14.9454L19.0901 13.5209L19.1846 12.5545L18.4586 12.4795L18.1911 12.212H17.7031L17.4551 12.441H16.5947L16.5657 12.5175H16.0872L14.9892 11.266L14.9982 10.2911L15.1797 10.2246L15.2472 9.85157H14.9892L14.8837 9.46009L16.1542 8.54313V7.89316L16.7762 7.54767L17.0281 7.57267H17.5396L17.9401 7.35768L19.2306 7.25718V7.91666L20.251 8.17514ZM17.0251 4.07482L17.1301 3.91283L17.5081 3.83633L17.6026 4.29531L17.8036 4.6198L17.9371 4.77329L18.1806 4.86829L17.9511 5.14128L17.5066 5.18377H17.1726L17.2101 4.78729L17.4881 4.72979L17.4646 4.5433L17.2056 4.38081L17.0246 4.25681L17.0251 4.07482ZM16.4047 4.79179L16.6342 4.42381L16.9436 4.35181L17.1636 4.44731L17.1436 4.6958L16.6707 5.03028H16.4037V4.79179H16.4047ZM10.1564 6.20623L9.91695 6.22623L9.92995 6.05974L10.0369 5.92624L10.1809 6.03924L10.1564 6.20623ZM10.9959 5.91224L10.8324 5.92624L10.7994 6.08424L10.6734 6.16273L10.4714 6.17973C10.4644 6.13223 10.4604 6.09624 10.4604 6.09624H10.3819V5.92624H10.7114L10.7794 5.75075L10.9104 5.74825L11.0599 5.77925L10.9959 5.91224Z" fill="white"/>
</g>
<rect x="0.5" y="0.5" width="22" height="22" rx="11" stroke="white"/>
<defs>
<clipPath id="clip0_128_42">
<rect width="23" height="23" rx="11.5" fill="white"/>
</clipPath>
</defs>
</svg>
