<svg width="18" height="20" viewBox="0 0 18 20" fill="none" xmlns="http://www.w3.org/2000/svg">
<path fill-rule="evenodd" clip-rule="evenodd" d="M17.3797 6.5C15.4197 -2.16 2.58971 -2.17 0.619709 6.49C-0.530291 11.57 2.62971 15.88 5.38971 18.54C6.35763 19.4735 7.64995 19.9952 8.99471 19.9952C10.3395 19.9952 11.6318 19.4735 12.5997 18.54C15.3697 15.88 18.5297 11.58 17.3797 6.5ZM10.1929 11.1929C9.81434 11.3497 9.40863 11.4304 8.99891 11.4304C8.17143 11.4304 7.37785 11.1017 6.79273 10.5166C6.20762 9.93149 5.87891 9.13791 5.87891 8.31043C5.87891 7.48295 6.20762 6.68937 6.79273 6.10426C7.37785 5.51914 8.17143 5.19043 8.99891 5.19043C9.40863 5.19043 9.81434 5.27113 10.1929 5.42793C10.5714 5.58472 10.9154 5.81454 11.2051 6.10426C11.4948 6.39397 11.7246 6.73792 11.8814 7.11646C12.0382 7.49499 12.1189 7.90071 12.1189 8.31043C12.1189 8.72015 12.0382 9.12586 11.8814 9.5044C11.7246 9.88294 11.4948 10.2269 11.2051 10.5166C10.9154 10.8063 10.5714 11.0361 10.1929 11.1929Z" fill="#DF2818"/>
</svg>
