<svg width="22" height="22" viewBox="0 0 22 22" fill="none" xmlns="http://www.w3.org/2000/svg">
<path fill-rule="evenodd" clip-rule="evenodd" d="M11.0007 20.1663C16.0606 20.1663 20.1673 16.0597 20.1673 10.9997C20.1673 5.93967 16.0606 1.83301 11.0007 1.83301C5.94065 1.83301 1.83398 5.93967 1.83398 10.9997C1.83398 16.0597 5.94065 20.1663 11.0007 20.1663ZM11.5302 6.88379C11.5302 6.4033 11.1406 6.01379 10.6602 6.01379C10.1797 6.01379 9.79016 6.4033 9.79016 6.88379V10.6421C9.79016 11.1182 9.95057 11.5868 10.168 11.968C10.3851 12.3487 10.7059 12.7245 11.1137 12.9665L11.115 12.9672L13.9543 14.6617C14.3669 14.9079 14.901 14.7731 15.1472 14.3605C15.3935 13.9479 15.2586 13.4138 14.846 13.1675L12.0043 11.4717L12.002 11.4703C11.9154 11.419 11.7875 11.2955 11.6794 11.106C11.5714 10.9166 11.5302 10.7436 11.5302 10.6421V6.88379Z" fill="#E02E1A"/>
</svg>
