<svg width="21" height="21" viewBox="0 0 21 21" fill="none" xmlns="http://www.w3.org/2000/svg">
<path d="M10.4995 11.7513C10.858 11.7513 11.213 11.6806 11.5443 11.5434C11.8755 11.4063 12.1764 11.2052 12.4299 10.9517C12.6834 10.6982 12.8845 10.3972 13.0217 10.066C13.1589 9.73477 13.2295 9.37977 13.2295 9.02126C13.2295 8.66275 13.1589 8.30775 13.0217 7.97653C12.8845 7.64532 12.6834 7.34436 12.4299 7.09086C12.1764 6.83735 11.8755 6.63626 11.5443 6.49907C11.213 6.36187 10.858 6.29126 10.4995 6.29126C9.77549 6.29126 9.0811 6.57888 8.56913 7.09086C8.05716 7.60283 7.76953 8.29722 7.76953 9.02126C7.76953 9.7453 8.05716 10.4397 8.56913 10.9517C9.0811 11.4636 9.77549 11.7513 10.4995 11.7513Z" stroke="#616161" stroke-width="1.10075"/>
<path d="M3.16749 7.42875C4.89124 -0.148748 16.1175 -0.139998 17.8325 7.4375C18.8387 11.8825 16.0737 15.645 13.65 17.9725C12.8031 18.7893 11.6723 19.2458 10.4956 19.2458C9.31895 19.2458 8.18817 18.7893 7.34124 17.9725C4.92624 15.645 2.16124 11.8738 3.16749 7.42875Z" stroke="#616161" stroke-width="1.10075"/>
</svg>
