<svg width="14" height="14" viewBox="0 0 14 14" fill="none" xmlns="http://www.w3.org/2000/svg">
<g clip-path="url(#clip0_396_53)">
<path d="M8.77966 2.91659C9.34942 3.02775 9.87305 3.3064 10.2835 3.71688C10.694 4.12736 10.9727 4.65099 11.0838 5.22075M8.77966 0.583252C9.9634 0.714756 11.0673 1.24485 11.91 2.08651C12.7527 2.92816 13.2842 4.03134 13.4172 5.21492M12.8338 9.86992V11.6199C12.8345 11.7824 12.8012 11.9432 12.7361 12.092C12.671 12.2409 12.5756 12.3745 12.4559 12.4843C12.3362 12.5942 12.1948 12.6778 12.0409 12.7298C11.887 12.7819 11.724 12.8012 11.5622 12.7866C9.76714 12.5915 8.04291 11.9782 6.52799 10.9958C5.11856 10.1001 3.9236 8.90519 3.02799 7.49575C2.04214 5.97395 1.42863 4.24133 1.23716 2.43825C1.22258 2.27694 1.24175 2.11436 1.29345 1.96087C1.34515 1.80737 1.42824 1.66632 1.53744 1.5467C1.64663 1.42707 1.77954 1.3315 1.9277 1.26606C2.07586 1.20061 2.23602 1.16674 2.39799 1.16659H4.14799C4.43109 1.1638 4.70554 1.26405 4.92018 1.44865C5.13483 1.63324 5.27503 1.8896 5.31466 2.16992C5.38852 2.72996 5.5255 3.27984 5.72299 3.80909C5.80147 4.01787 5.81846 4.24479 5.77194 4.46293C5.72541 4.68108 5.61733 4.88132 5.46049 5.03992L4.71966 5.78075C5.55006 7.24115 6.75925 8.45034 8.21966 9.28075L8.96049 8.53992C9.11909 8.38308 9.31933 8.275 9.53748 8.22847C9.75562 8.18195 9.98253 8.19893 10.1913 8.27742C10.7206 8.47491 11.2705 8.61189 11.8305 8.68575C12.1139 8.72573 12.3726 8.86846 12.5576 9.08679C12.7426 9.30513 12.8409 9.58384 12.8338 9.86992Z" stroke="#6C6C6C" stroke-width="0.916667" stroke-linecap="round" stroke-linejoin="round"/>
</g>
<defs>
<clipPath id="clip0_396_53">
<rect width="14" height="14" fill="white"/>
</clipPath>
</defs>
</svg>
