<svg width="114" height="114" viewBox="0 0 114 114" fill="none" xmlns="http://www.w3.org/2000/svg">
<path d="M113.991 56.6605C114.047 64.5308 112.468 72.3269 109.355 79.5553C106.242 86.7838 101.661 93.2871 95.9042 98.6536C95.7015 98.842 95.4627 98.9872 95.2023 99.0807C94.9418 99.1741 94.6651 99.2137 94.3889 99.1971C94.1127 99.1805 93.8428 99.1081 93.5954 98.9842C93.348 98.8603 93.1283 98.6875 92.9496 98.4763L80.4972 83.8007C80.0817 83.3087 79.8537 82.6855 79.8537 82.0415C79.8537 81.3976 80.0817 80.7744 80.4972 80.2824L89.4557 69.6304C89.634 69.4196 89.8562 69.2502 90.1067 69.134C90.3572 69.0178 90.6301 68.9576 90.9062 68.9576C91.1824 68.9576 91.4552 69.0178 91.7057 69.134C91.9562 69.2502 92.1784 69.4196 92.3568 69.6304L101.762 80.7149C101.896 80.8733 102.067 80.996 102.26 81.0722C102.453 81.1485 102.661 81.1758 102.867 81.1517C103.073 81.1276 103.27 81.053 103.44 80.9343C103.61 80.8157 103.748 80.6569 103.842 80.4719C107.837 72.4743 109.718 63.5869 109.305 54.6564C108.892 45.726 106.2 37.05 101.483 29.4551C96.7673 21.8603 90.185 15.5996 82.3636 11.2695C74.5422 6.93946 65.7423 4.6843 56.8024 4.71892C47.8625 4.75354 39.0803 7.07678 31.2927 11.4673C23.5051 15.8578 16.9714 22.1693 12.3143 29.8004C7.65714 37.4316 5.03163 46.1282 4.68792 55.0615C4.3442 63.9949 6.29374 72.8675 10.3508 80.834C10.4758 81.0736 10.6579 81.2788 10.8809 81.4315C11.104 81.5842 11.3612 81.6796 11.6299 81.7094C11.8986 81.7391 12.1704 81.7023 12.4215 81.6022C12.6726 81.5021 12.8952 81.3417 13.0696 81.1352L22.6792 69.8102C22.8699 69.5855 23.1065 69.4042 23.3731 69.2786C23.6397 69.153 23.9302 69.086 24.2249 69.0821C24.5196 69.0782 24.8117 69.1375 25.0815 69.2559C25.3514 69.3744 25.5927 69.5493 25.7893 69.7689L35.0369 80.105C35.4328 80.5474 35.6551 81.1182 35.6627 81.7118C35.6703 82.3055 35.4627 82.8818 35.0782 83.3342L22.2006 98.503C21.9556 98.7904 21.6548 99.025 21.3165 99.1928C20.9782 99.3606 20.6093 99.458 20.2323 99.4792C19.8552 99.5003 19.4778 99.4447 19.1228 99.3157C18.7679 99.1868 18.4428 98.9872 18.1672 98.729C14.358 95.1874 11.0498 91.1426 8.33409 86.7066C2.8654 77.7655 -0.0192806 67.4841 9.69858e-05 57.0031C9.69858e-05 25.2343 25.9983 -0.464986 57.8715 0.00638224C88.7365 0.475321 113.811 25.7932 113.991 56.6605Z" fill="url(#paint0_linear_605_26)"/>
<path d="M75.7037 48.3289L79.878 43.7732H69.2965V37.1327H56.2026V46.2053H62.3061V53.1203H79.878L75.7474 49.3688C75.6754 49.3039 75.6171 49.2253 75.5759 49.1376C75.5346 49.0499 75.5113 48.9549 75.5072 48.8581C75.5031 48.7612 75.5184 48.6645 75.5522 48.5737C75.5859 48.4828 75.6374 48.3996 75.7037 48.3289Z" fill="url(#paint1_linear_605_26)"/>
<path d="M57.1648 34.0543H55.8867V60.4437H57.1648V34.0543Z" fill="url(#paint2_linear_605_26)"/>
<path d="M56.987 62.8708C56.2477 63.8563 55.6011 64.908 55.0554 66.0124L54.9655 66.2093C54.9531 66.2473 54.9442 66.2863 54.9387 66.3259C54.9282 66.4077 54.9365 66.4908 54.963 66.5689C54.988 66.6417 55.0288 66.7081 55.0826 66.7631C55.1364 66.8182 55.2018 66.8606 55.2741 66.8872C55.8475 67.1058 56.4622 67.3464 57.0478 67.5893C58.231 68.0753 59.3997 68.6123 60.5369 69.2173C61.6931 69.8156 62.807 70.4927 63.8705 71.2437C64.9274 72.0285 65.9843 72.8837 66.7521 74.1764C66.9479 74.5173 67.0958 74.8836 67.1919 75.2649C67.2426 75.4682 67.2759 75.6755 67.2915 75.8845C67.3036 76.1507 67.2657 76.4169 67.1798 76.6693C67.0296 77.0881 66.7881 77.4683 66.4727 77.7821C66.215 78.0508 65.9327 78.2948 65.6296 78.511C64.5233 79.2524 63.3445 79.8792 62.1113 80.3819C60.9256 80.897 59.735 81.3538 58.5445 81.8106C56.1633 82.7096 53.7846 83.56 51.4739 84.51C50.3198 84.996 49.1827 85.4819 48.099 86.0456C47.0537 86.56 46.0774 87.2041 45.1931 87.9627C44.8361 88.2696 44.5472 88.6478 44.3451 89.0731C44.2769 89.2258 44.2437 89.3918 44.2479 89.559C44.2459 89.6408 44.2549 89.7225 44.2746 89.802C44.3062 89.9065 44.3354 90.0085 44.3621 90.113C44.661 90.9634 45.3972 91.8357 46.2549 92.5865C47.1644 93.339 48.1403 94.0075 49.1706 94.5837C50.2467 95.1564 51.3521 95.6722 52.4823 96.129C54.7786 97.0392 57.1198 97.8315 59.4969 98.5029C61.8732 99.2099 64.2738 99.8562 66.6719 100.532C69.0701 101.207 71.4464 102.007 73.9028 102.507C84.5329 104.674 88.1605 103.6 89.2442 101.654C89.4968 101.165 89.6002 100.613 89.5414 100.065C89.4827 99.518 89.2644 99 88.9137 98.5758L58.8676 60.4459C58.2238 61.2356 57.5847 62.0496 56.987 62.8708Z" fill="url(#paint3_linear_605_26)"/>
<path d="M72.9896 106.504C71.731 106.261 70.4796 105.994 69.2259 105.717C67.9722 105.44 66.7233 105.141 65.4817 104.798C64.2401 104.456 63.0082 104.086 61.7836 103.681C60.559 103.275 59.3539 102.813 58.139 102.33C55.726 101.35 53.3732 100.228 51.0928 98.9694C49.9532 98.3183 48.8088 97.6768 47.7155 96.9212C46.5821 96.1867 45.5154 95.3541 44.5276 94.4331C44.0065 93.9502 43.5315 93.4199 43.1087 92.8489L42.7904 92.397L42.5207 91.8965C42.4244 91.7274 42.3431 91.5501 42.2777 91.3668C42.1969 91.1827 42.128 90.9936 42.0712 90.8007L41.9278 90.1908C41.8873 89.9566 41.8726 89.7187 41.8841 89.4813C41.9002 89.011 42.0118 88.5489 42.2121 88.1231C42.5644 87.4047 43.0664 86.7701 43.6845 86.2619C44.7387 85.401 45.899 84.6792 47.1372 84.114C48.318 83.5406 49.511 83.0425 50.7089 82.576C53.1022 81.6479 55.51 80.8436 57.8863 79.9981C59.072 79.5753 60.2505 79.1452 61.3973 78.6714C62.5202 78.2408 63.5971 77.6987 64.6118 77.0532C65.0686 76.7495 65.4671 76.3486 65.557 76.1008C65.5758 76.0542 65.5873 76.0051 65.591 75.955C65.5855 75.848 65.5717 75.7416 65.5497 75.6367C65.5 75.4023 65.4182 75.1758 65.3067 74.9637C64.8208 74.0428 63.9048 73.1997 62.9572 72.461C61.0255 70.9765 58.7902 69.8102 56.5475 68.7071C55.979 68.4325 55.425 68.1798 54.8297 67.915C54.6105 67.8152 54.4161 67.6679 54.2606 67.4839C54.1052 67.2999 53.9925 67.0836 53.9307 66.8508C53.8701 66.6198 53.8626 66.378 53.9088 66.1437C53.9311 66.0276 53.9661 65.9144 54.0133 65.806L54.1324 65.5752C54.7657 64.4358 55.5253 63.3713 56.3969 62.4019C57.0942 61.5928 57.8207 60.8153 58.5618 60.0548C58.3606 59.8063 58.1052 59.607 57.8153 59.4722C57.5253 59.3374 57.2084 59.2706 56.8887 59.2769C56.569 59.2832 56.2549 59.3625 55.9705 59.5087C55.6861 59.6549 55.4389 59.8641 55.2476 60.1204L25.3619 100.267C25.0945 100.624 24.9033 101.033 24.8002 101.467C24.697 101.902 24.6841 102.353 24.7623 102.792C24.8404 103.232 25.0079 103.651 25.2544 104.023C25.5008 104.395 25.8211 104.713 26.1953 104.956C34.5025 110.292 44.053 113.38 53.9117 113.916C63.7704 114.452 73.5994 112.419 82.4364 108.015C79.268 107.614 76.1215 107.119 72.9896 106.504Z" fill="url(#paint4_linear_605_26)"/>
<defs>
<linearGradient id="paint0_linear_605_26" x1="56.9963" y1="0" x2="56.9963" y2="99.4835" gradientUnits="userSpaceOnUse">
<stop stop-color="#F2831D"/>
<stop offset="1" stop-color="#E54719"/>
</linearGradient>
<linearGradient id="paint1_linear_605_26" x1="68.0403" y1="37.1327" x2="68.0403" y2="53.1203" gradientUnits="userSpaceOnUse">
<stop stop-color="#ED6B1B"/>
<stop offset="1" stop-color="#F1811D"/>
</linearGradient>
<linearGradient id="paint2_linear_605_26" x1="56.5257" y1="34.0543" x2="56.5257" y2="60.4437" gradientUnits="userSpaceOnUse">
<stop stop-color="#ED6B1B"/>
<stop offset="1" stop-color="#F1811D"/>
</linearGradient>
<linearGradient id="paint3_linear_605_26" x1="66.9025" y1="60.4459" x2="66.9025" y2="103.704" gradientUnits="userSpaceOnUse">
<stop stop-color="#F2831D"/>
<stop offset="1" stop-color="#E54719"/>
</linearGradient>
<linearGradient id="paint4_linear_605_26" x1="53.5741" y1="59.2765" x2="53.5741" y2="114" gradientUnits="userSpaceOnUse">
<stop stop-color="#F2831D"/>
<stop offset="1" stop-color="#E54719"/>
</linearGradient>
</defs>
</svg>
