<svg width="24" height="19" viewBox="0 0 24 19" fill="none" xmlns="http://www.w3.org/2000/svg">
<path d="M19.1978 5.99339C18.1329 1.75105 13.8305 -0.824729 9.58821 0.240197C6.27293 1.07244 3.86566 3.93778 3.61763 7.34689C1.26364 7.73509 -0.329965 9.95804 0.0582335 12.312C0.403324 14.4048 2.21666 15.9373 4.3376 15.9289H7.93745V14.489H4.3376C2.7471 14.489 1.45772 13.1996 1.45772 11.6091C1.45772 10.0186 2.7471 8.72923 4.3376 8.72923C4.73525 8.72923 5.05757 8.40691 5.05757 8.00926C5.05397 4.4306 7.95217 1.5266 11.5308 1.52305C14.6287 1.51994 17.2954 3.71 17.8946 6.74931C17.9538 7.05278 18.2001 7.28461 18.5066 7.32529C20.4749 7.60558 21.8433 9.42841 21.563 11.3967C21.3114 13.1641 19.8023 14.4801 18.017 14.489H15.1372V15.9289H18.017C20.8004 15.9205 23.05 13.6573 23.0415 10.8739C23.0345 8.55693 21.4486 6.54322 19.1978 5.99339Z" fill="black"/>
<path d="M11.0264 8.93814L8.14648 11.818L9.16164 12.8332L10.8176 11.1844V18.089H12.2575V11.1844L13.9062 12.8332L14.9214 11.818L12.0415 8.93814C11.7607 8.65897 11.3072 8.65897 11.0264 8.93814Z" fill="black"/>
</svg>
